# Created by Metasequoia

mtllib cube.mtl

v -0.250000 0.250000 0.250000
v -0.250000 -0.250000 0.250000
v 0.250000 0.250000 0.250000
v 0.250000 -0.250000 0.250000
v 0.250000 0.250000 -0.250000
v 0.250000 -0.250000 -0.250000
v -0.250000 0.250000 -0.250000
v -0.250000 -0.250000 -0.250000
# 8 vertices

vt 0.00000 1.00000
vt 1.00000 1.00000
vt 1.00000 0.00000
vt 0.00000 0.00000
# 4 texture vertices

vn -0.57735 0.57735 0.57735
vn 0.61829 0.55575 0.55575
vn 0.57735 -0.57735 0.57735
vn -0.57735 -0.57735 0.57735
vn 0.57735 0.57735 -0.57735
vn 0.57735 -0.57735 -0.57735
vn -0.57735 0.57735 -0.57735
vn -0.57735 -0.57735 -0.57735
# 8 normal vertices

s 1
usemtl mat1
f 2/4/4 4/3/3 3/2/2 1/1/1
f 4/4/3 6/3/6 5/2/5 3/1/2
f 6/4/6 8/3/8 7/2/7 5/1/5
f 8/4/8 2/3/4 1/2/1 7/1/7
f 1/4/1 3/3/2 5/2/5 7/1/7
f 8/4/8 6/3/6 4/2/3 2/1/4
# 6 elements

