# Created by Metasequoia

mtllib test.mtl

v -100.000000 100.000000 100.000000
v -100.000000 -100.000000 100.000000
v 100.000000 100.000000 100.000000
v 100.000000 -100.000000 100.000000
v 100.000000 100.000000 -100.000000
v 100.000000 -100.000000 -100.000000
v -100.000000 100.000000 -100.000000
v -100.000000 -100.000000 -100.000000
# 8 vertices

vt 0.00000 1.00000
vt 1.00000 1.00000
vt 1.00000 0.00000
vt 0.00000 0.00000
# 4 texture vertices

vn 0.00000 0.00000 1.00000
vn 1.00000 0.00000 0.00000
vn 0.00000 0.00000 -1.00000
vn -1.00000 0.00000 0.00000
vn 0.00000 1.00000 0.00000
vn 0.00000 -1.00000 0.00000
# 6 normal vertices

s 1
usemtl mat1
f 2/4/1 4/3/1 3/2/1 1/1/1
f 4/4/2 6/3/2 5/2/2 3/1/2
f 6/4/3 8/3/3 7/2/3 5/1/3
f 8/4/4 2/3/4 1/2/4 7/1/4
f 1/4/5 3/3/5 5/2/5 7/1/5
f 8/4/6 6/3/6 4/2/6 2/1/6
# 6 elements

