# Created by Metasequoia

mtllib two_mtl.mtl

v -0.250000 0.250000 0.250000
v -0.250000 -0.250000 0.250000
v 0.250000 0.250000 0.250000
v 0.250000 -0.250000 0.250000
v 0.250000 0.250000 -0.250000
v 0.250000 -0.250000 -0.250000
v -0.250000 0.250000 -0.250000
v -0.250000 -0.250000 -0.250000
v 0.000000 0.250000 0.250000
v 0.077254 0.250000 0.237764
v 0.146946 0.250000 0.202254
v 0.202254 0.250000 0.146946
v 0.237764 0.250000 0.077254
v 0.250000 0.250000 0.000000
v 0.237764 0.250000 -0.077254
v 0.202254 0.250000 -0.146946
v 0.146946 0.250000 -0.202254
v 0.077254 0.250000 -0.237764
v 0.000000 0.250000 -0.250000
v -0.077254 0.250000 -0.237764
v -0.146946 0.250000 -0.202254
v -0.202254 0.250000 -0.146946
v -0.237764 0.250000 -0.077254
v -0.250000 0.250000 0.000000
v -0.237764 0.250000 0.077255
v -0.202254 0.250000 0.146947
v -0.146946 0.250000 0.202254
v -0.077254 0.250000 0.237764
v 0.000000 0.450000 0.000000
v 0.000000 0.250000 0.000000
# 30 vertices

vt 0.00000 1.00000
vt 1.00000 1.00000
vt 1.00000 0.00000
vt 0.00000 0.00000
vt 0.02500 1.00000
vt 0.05000 0.00000
vt 0.05000 1.00000
vt 0.10000 0.00000
vt 0.07500 1.00000
vt 0.15000 0.00000
vt 0.10000 1.00000
vt 0.20000 0.00000
vt 0.12500 1.00000
vt 0.25000 0.00000
vt 0.15000 1.00000
vt 0.30000 0.00000
vt 0.17500 1.00000
vt 0.35000 0.00000
vt 0.20000 1.00000
vt 0.40000 0.00000
vt 0.22500 1.00000
vt 0.45000 0.00000
vt 0.25000 1.00000
vt 0.50000 0.00000
vt 0.27500 1.00000
vt 0.55000 0.00000
vt 0.30000 1.00000
vt 0.60000 0.00000
vt 0.32500 1.00000
vt 0.65000 0.00000
vt 0.35000 1.00000
vt 0.70000 0.00000
vt 0.37500 1.00000
vt 0.75000 0.00000
vt 0.40000 1.00000
vt 0.80000 0.00000
vt 0.42500 1.00000
vt 0.85000 0.00000
vt 0.45000 1.00000
vt 0.90000 0.00000
vt 0.47500 1.00000
vt 0.95000 0.00000
vt 0.50000 1.00000
vt 1.00000 0.00000
# 44 texture vertices

vn 0.00000 0.00000 1.00000
vn 1.00000 0.00000 0.00000
vn 0.00000 0.00000 -1.00000
vn -1.00000 0.00000 0.00000
vn 0.00000 1.00000 0.00000
vn 0.00000 -1.00000 0.00000
vn 0.00000 0.78087 0.62470
vn -0.00000 1.00000 -0.00000
vn 0.19304 0.78087 0.59412
vn 0.36719 0.78087 0.50539
vn 0.50539 0.78087 0.36719
vn 0.59412 0.78087 0.19304
vn 0.62470 0.78087 -0.00000
vn 0.59412 0.78087 -0.19304
vn 0.50539 0.78087 -0.36719
vn 0.36719 0.78087 -0.50539
vn 0.19304 0.78087 -0.59412
vn -0.00000 0.78087 -0.62470
vn -0.19304 0.78087 -0.59412
vn -0.36719 0.78087 -0.50539
vn -0.50539 0.78087 -0.36719
vn -0.59412 0.78087 -0.19304
vn -0.62470 0.78087 0.00000
vn -0.59412 0.78087 0.19304
vn -0.50539 0.78087 0.36719
vn -0.36719 0.78087 0.50539
vn -0.19304 0.78087 0.59412
vn 0.00000 -1.00000 0.00000
# 28 normal vertices

s 1
usemtl mat1
f 2/4/1 4/3/1 3/2/1 1/1/1
f 4/4/2 6/3/2 5/2/2 3/1/2
f 6/4/3 8/3/3 7/2/3 5/1/3
f 8/4/4 2/3/4 1/2/4 7/1/4
f 1/4/5 3/3/5 5/2/5 7/1/5
f 8/4/6 6/3/6 4/2/6 2/1/6
s 1
usemtl mat2
f 10/6/9 29/5/8 9/4/7
f 11/8/10 29/7/8 10/6/9
f 12/10/11 29/9/8 11/8/10
f 13/12/12 29/11/8 12/10/11
f 14/14/13 29/13/8 13/12/12
f 15/16/14 29/15/8 14/14/13
f 16/18/15 29/17/8 15/16/14
f 17/20/16 29/19/8 16/18/15
f 18/22/17 29/21/8 17/20/16
f 19/24/18 29/23/8 18/22/17
f 20/26/19 29/25/8 19/24/18
f 21/28/20 29/27/8 20/26/19
f 22/30/21 29/29/8 21/28/20
f 23/32/22 29/31/8 22/30/21
f 24/34/23 29/33/8 23/32/22
f 25/36/24 29/35/8 24/34/23
f 26/38/25 29/37/8 25/36/24
f 27/40/26 29/39/8 26/38/25
f 28/42/27 29/41/8 27/40/26
f 9/44/7 29/43/8 28/42/27
f 10/1/6 9/1/6 30/1/28
f 11/1/6 10/1/6 30/1/28
f 12/1/6 11/1/6 30/1/28
f 13/1/6 12/1/6 30/1/28
f 14/1/6 13/1/6 30/1/28
f 15/1/6 14/1/6 30/1/28
f 16/1/6 15/1/6 30/1/28
f 17/1/6 16/1/6 30/1/28
f 18/1/6 17/1/6 30/1/28
f 19/1/6 18/1/6 30/1/28
f 20/1/6 19/1/6 30/1/28
f 21/1/6 20/1/6 30/1/28
f 22/1/6 21/1/6 30/1/28
f 23/1/6 22/1/6 30/1/28
f 24/1/6 23/1/6 30/1/28
f 25/1/6 24/1/6 30/1/28
f 26/1/6 25/1/6 30/1/28
f 27/1/6 26/1/6 30/1/28
f 28/1/6 27/1/6 30/1/28
f 9/1/6 28/1/6 30/1/28
# 46 elements

